<?xml version="1.0" encoding="utf-8"?>
<!-- Generator: Adobe Illustrator 22.1.0, SVG Export Plug-In . SVG Version: 6.00 Build 0)  -->
<svg version="1.1" id="Layer_1" xmlns="http://www.w3.org/2000/svg" xmlns:xlink="http://www.w3.org/1999/xlink" x="0px" y="0px"
	 viewBox="0 0 115 152.5" style="enable-background:new 0 0 115 152.5;" xml:space="preserve">
<style type="text/css">
	.st0{fill:#FF000D;}
</style>
<g>
	<path class="st0" d="M101,86.4c0.9,3.8-0.6,7.3-1.8,9.4c-0.5,0.9-1,1.6-1.2,1.8c-1.2,1.6-2.7,2.9-4.4,4c-8.6,5.4-22,4-28.5,1
		c-0.4-0.2-1.2-0.6-2.3-1.1c-4.5-2.3-7.9-4.8-10.7-7.5c-4.1-4-6.6-8.3-8.6-12.3c-0.8-1.7-1.6-3.3-2.3-4.8c-2.5-4.8-6.3-5.9-8.7-6.1
		c-1.4-0.1-2.3,0.1-2.3,0.1l-0.7,2.8L25,90.8c5.5,0.5,9.2-0.7,11.8-2.1c0.3-0.2,0.7-0.4,1-0.6c1.4-1,2.3-2,2.8-2.7
		c1.9,3.7,4.3,7.7,8.2,11.5c0.2,0.2,0.5,0.5,0.7,0.7c-1.1,1-2.2,1.9-3.4,2.6c-8.6,5.6-18.7,5.1-21.2,5.1c-3.3,0-19.5,0-19.5,0
		l12-45.5l0.7-2.8h19.3c5.2,0,10.2,3.1,13,7.5l0.4,0.7c0.7,1.2,2.2,3.8,3.8,6.5l0.1,0.3c0.9,1.6,1.8,3.3,2.5,4.7
		c2.3,3.9,5,7.5,8.6,10.2c0.9,0.7,3,2.4,6,3.9c2.5,1.3,5.9,2.5,9.5,2.3c0.1,0,0.1,0,0.2,0c2.6-0.2,3.1-1,3.3-1.3
		c0.2-0.5,0.2-1.1-0.1-1.6c-0.4-0.8-1.2-1-1.5-1.1c-0.1,0-0.1-0.1-0.2-0.1c-3.4-1.2-8.6-3-8.6-3s-0.8-0.3-1.9-0.9l0,0
		c-1.4-0.8-3.3-2-5-3.8c0,0,0,0-0.1-0.1c-2.8-3.2-4.8-8-1.6-14.8c0.7-1.5,1.5-2.7,2.6-3.8c0.4-0.5,0.9-0.9,1.4-1.3
		c9.7-8.3,29.4-5.4,37.2,2.4l0,0l-8.8,10.6c-0.2-0.2-0.5-0.3-0.7-0.5c-1.4-0.9-2.9-1.6-4.5-2.3c-4.9-2-7.5-2.3-9-2.2
		c-2.2,0.1-3.5,0.8-3.5,1.8c0,0.4,0.1,0.8,0.3,1c0.5,0.6,1.3,0.9,1.9,1.1c0.9,0.3,3.7,1.2,6.9,2.5c2,0.8,4,1.8,5.7,3.1
		C96.5,79.4,100,82.2,101,86.4z"/>
	<path class="st0" d="M60.9,73.4c-0.3-0.5-0.6-0.9-0.9-1.4l-6.3-11l-1.3-2.3c-3.1-5-8.3-8-14.1-8H6.4L17.9,7h16L26,37.4h10.2
		C68.4,37.4,60.9,73.4,60.9,73.4z"/>
</g>
<g>
	<g>
		<path d="M5.5,114.9h4.8v10.3H17v4.1H5.5V114.9z"/>
		<path d="M23.9,114.8h4.8l6.1,14.5h-5.2l-0.9-1.9h-5l-0.7,1.9h-5.1L23.9,114.8z M27.5,123.9l-1.3-3.5l-1.3,3.5H27.5z"/>
		<path d="M42.3,129.6c-1.5,0-2.8-0.2-4.1-0.6c-1.3-0.4-2.4-1-3.3-1.8l2.6-3.1c0.8,0.6,1.6,1,2.5,1.3s1.7,0.4,2.6,0.4
			c0.4,0,0.8-0.1,0.9-0.2c0.1-0.1,0.3-0.3,0.3-0.5l0,0c0-0.2-0.1-0.4-0.4-0.5c-0.3-0.1-0.8-0.3-1.6-0.4c-0.8-0.2-1.6-0.4-2.3-0.6
			s-1.4-0.5-1.9-0.8s-1-0.8-1.3-1.3s-0.5-1.2-0.5-1.9l0,0c0-0.7,0.1-1.3,0.4-1.9c0.3-0.6,0.7-1.1,1.2-1.5s1.1-0.8,1.9-1
			c0.8-0.2,1.6-0.4,2.6-0.4c1.4,0,2.6,0.2,3.7,0.5c1,0.3,2,0.8,2.8,1.5l-2.3,3.2c-0.7-0.5-1.4-0.9-2.2-1.1s-1.5-0.3-2.1-0.3
			c-0.4,0-0.6,0.1-0.8,0.2s-0.3,0.3-0.3,0.4l0,0c0,0.1,0,0.2,0.1,0.3c0.1,0.1,0.2,0.2,0.3,0.2c0.1,0.1,0.3,0.1,0.6,0.2
			s0.6,0.1,0.9,0.2c0.9,0.2,1.8,0.4,2.5,0.6s1.4,0.5,1.9,0.9s1,0.8,1.3,1.3s0.4,1.1,0.4,1.8l0,0c0,0.8-0.2,1.4-0.5,2
			s-0.7,1.1-1.3,1.5s-1.2,0.7-2,1S43.2,129.6,42.3,129.6z"/>
		<path d="M56.7,129.6c-1.5,0-2.8-0.2-4.1-0.6c-1.3-0.4-2.4-1-3.3-1.8l2.6-3.1c0.8,0.6,1.6,1,2.5,1.3s1.7,0.4,2.6,0.4
			c0.4,0,0.8-0.1,0.9-0.2c0.1-0.1,0.3-0.3,0.3-0.5l0,0c0-0.2-0.1-0.4-0.4-0.5c-0.3-0.1-0.8-0.3-1.6-0.4c-0.8-0.2-1.6-0.4-2.3-0.6
			s-1.4-0.5-1.9-0.8s-1-0.8-1.3-1.3s-0.5-1.2-0.5-1.9l0,0c0-0.7,0.1-1.3,0.4-1.9c0.3-0.6,0.7-1.1,1.2-1.5s1.1-0.8,1.9-1
			c0.8-0.2,1.6-0.4,2.6-0.4c1.4,0,2.6,0.2,3.7,0.5c1,0.3,2,0.8,2.8,1.5l-2.3,3.2c-0.7-0.5-1.4-0.9-2.2-1.1s-1.5-0.3-2.1-0.3
			c-0.4,0-0.6,0.1-0.8,0.2s-0.3,0.3-0.3,0.4l0,0c0,0.1,0,0.2,0.1,0.3c0.1,0.1,0.2,0.2,0.3,0.2c0.1,0.1,0.3,0.1,0.6,0.2
			s0.6,0.1,0.9,0.2c0.9,0.2,1.8,0.4,2.5,0.6s1.4,0.5,1.9,0.9s1,0.8,1.3,1.3s0.4,1.1,0.4,1.8l0,0c0,0.8-0.2,1.4-0.5,2
			s-0.7,1.1-1.3,1.5s-1.2,0.7-2,1S57.7,129.6,56.7,129.6z"/>
		<path d="M65,114.9h12.2v3.9h-7.5v1.5h7v3.5h-7v1.6h7.6v3.9H65V114.9z"/>
		<path d="M85.5,114.9H91c1.4,0,2.7,0.2,3.7,0.5s2,0.8,2.7,1.4s1.2,1.4,1.6,2.2c0.4,0.9,0.5,1.8,0.5,2.9l0,0c0,1.1-0.2,2-0.5,2.9
			c-0.4,0.9-0.9,1.7-1.6,2.3c-0.7,0.6-1.6,1.1-2.7,1.5s-2.4,0.5-3.8,0.5h-5.3L85.5,114.9L85.5,114.9z M91.1,125.1
			c1.1,0,2-0.2,2.6-0.7s1-1.2,1-2.3l0,0c0-1-0.3-1.8-1-2.3c-0.6-0.5-1.5-0.7-2.6-0.7h-0.8v6H91.1z"/>
		<path d="M101.4,124.6h4.8v4.7h-4.8V124.6z"/>
	</g>
	<g>
		<path d="M11.6,148.4c-1.5,0-2.8-0.2-4.1-0.6c-1.3-0.4-2.4-1-3.3-1.8l2.6-3.1c0.8,0.6,1.6,1,2.5,1.3s1.7,0.4,2.6,0.4
			c0.4,0,0.8-0.1,0.9-0.2c0.2-0.1,0.3-0.3,0.3-0.5l0,0c0-0.2-0.1-0.4-0.4-0.5c-0.3-0.1-0.8-0.3-1.6-0.4c-0.8-0.2-1.6-0.4-2.3-0.6
			s-1.4-0.5-1.9-0.8s-1-0.8-1.3-1.3s-0.5-1.2-0.5-1.9l0,0c0-0.7,0.1-1.3,0.4-1.9c0.3-0.6,0.7-1.1,1.2-1.5s1.1-0.8,1.9-1
			s1.6-0.4,2.6-0.4c1.4,0,2.6,0.2,3.7,0.5c1,0.3,2,0.8,2.8,1.5l-2.3,3.2c-0.7-0.5-1.4-0.9-2.2-1.1s-1.5-0.3-2.1-0.3
			c-0.4,0-0.6,0.1-0.8,0.2c-0.2,0.1-0.3,0.3-0.3,0.4l0,0c0,0.1,0,0.2,0.1,0.3s0.2,0.2,0.3,0.2c0.1,0.1,0.3,0.1,0.6,0.2
			c0.3,0.1,0.6,0.1,0.9,0.2c0.9,0.2,1.8,0.4,2.5,0.6c0.8,0.2,1.4,0.5,1.9,0.9c0.5,0.4,1,0.8,1.3,1.3s0.4,1.1,0.4,1.8l0,0
			c0,0.8-0.2,1.4-0.5,2s-0.7,1.1-1.3,1.5c-0.6,0.4-1.2,0.7-2,1C13.5,148.2,12.6,148.4,11.6,148.4z"/>
		<path d="M19.9,133.6h6.5c1,0,1.8,0.1,2.6,0.3c0.8,0.2,1.5,0.5,2,1c0.6,0.4,1,1,1.3,1.6s0.5,1.4,0.5,2.2l0,0c0,0.9-0.2,1.6-0.5,2.3
			s-0.8,1.2-1.3,1.7c-0.6,0.5-1.3,0.8-2.1,1c-0.8,0.2-1.7,0.3-2.7,0.3h-1.6v3.9h-4.8L19.9,133.6L19.9,133.6z M26,140.8
			c0.6,0,1.1-0.1,1.5-0.4s0.6-0.7,0.6-1.2l0,0c0-0.5-0.2-0.9-0.5-1.2s-0.9-0.4-1.5-0.4h-1.3v3.2C24.8,140.8,26,140.8,26,140.8z"/>
		<path d="M34.7,133.6h4.8V148h-4.8V133.6z"/>
		<path d="M42,133.6h4.8v10.3h6.7v4.1H42V133.6z"/>
		<path d="M55.4,133.6h4.8v10.3h6.7v4.1H55.4V133.6z"/>
		<path d="M68.8,133.6h4.8V148h-4.8V133.6z"/>
		<path d="M76.1,133.6h4.5l5.1,6.3v-6.3h4.8V148h-4.3l-5.3-6.6v6.6h-4.8C76.1,148.1,76.1,133.6,76.1,133.6z"/>
		<path d="M100.7,148.4c-1.1,0-2.2-0.2-3.1-0.5s-1.8-0.9-2.6-1.5c-0.7-0.7-1.3-1.4-1.7-2.4c-0.4-0.9-0.6-1.9-0.6-3l0,0
			c0-1.1,0.2-2.1,0.6-3s1-1.7,1.7-2.4s1.5-1.2,2.5-1.6c1-0.4,2-0.6,3.1-0.6c1.2,0,2.4,0.2,3.4,0.6c1,0.4,1.9,0.9,2.7,1.6l-2.7,3.2
			c-0.5-0.4-1-0.7-1.5-0.9s-1.1-0.3-1.7-0.3c-0.5,0-0.9,0.1-1.3,0.3s-0.7,0.4-1,0.7s-0.5,0.7-0.7,1.1c-0.2,0.4-0.2,0.9-0.2,1.4l0,0
			c0,0.5,0.1,1,0.3,1.4c0.2,0.4,0.4,0.8,0.7,1.1c0.3,0.3,0.7,0.5,1.1,0.7s0.9,0.2,1.4,0.2c0.4,0,0.7,0,1-0.1s0.5-0.1,0.7-0.2v-1.4
			h-2.7v-3.1h7v6.6c-0.8,0.6-1.7,1.2-2.8,1.6C103.2,148.2,102,148.4,100.7,148.4z"/>
	</g>
</g>
</svg>
