<?xml version="1.0" standalone="no"?>
<!DOCTYPE svg PUBLIC "-//W3C//DTD SVG 20010904//EN"
 "http://www.w3.org/TR/2001/REC-SVG-20010904/DTD/svg10.dtd">
<svg version="1.0" xmlns="http://www.w3.org/2000/svg"
 width="1600.000000pt" height="1600.000000pt" viewBox="0 0 1600.000000 1600.000000"
 preserveAspectRatio="xMidYMid meet">
<metadata>
Created by potrace 1.11, written by Peter Selinger 2001-2013
</metadata>
<g transform="translate(0.000000,1600.000000) scale(0.100000,-0.100000)"
fill="#000000" stroke="none">
<path d="M1967 12534 c-1 -1 -31 -4 -67 -8 -153 -14 -254 -35 -417 -87 -230
-72 -479 -212 -658 -369 -59 -52 -173 -170 -204 -210 -14 -19 -32 -41 -39 -49
-21 -21 -102 -149 -102 -160 0 -5 -4 -11 -8 -13 -8 -3 -53 -92 -95 -188 -15
-34 -54 -160 -63 -204 -20 -94 -26 -134 -30 -221 -8 -130 -7 -246 1 -317 3
-32 8 -76 10 -98 2 -22 9 -57 14 -77 6 -21 12 -51 15 -68 15 -85 105 -320 151
-395 12 -19 25 -43 28 -53 7 -19 123 -192 142 -213 5 -6 26 -30 45 -54 56 -69
159 -172 236 -236 102 -85 114 -94 119 -94 7 0 99 -64 107 -75 4 -5 8 -6 8 -1
0 5 8 2 18 -6 19 -17 244 -128 271 -133 9 -2 30 -9 46 -15 17 -6 37 -13 45
-16 8 -2 49 -12 90 -23 77 -20 132 -31 185 -36 31 -3 104 -12 165 -20 135 -18
470 -23 755 -11 83 4 209 9 280 12 317 14 890 7 1025 -11 19 -3 58 -7 85 -10
28 -3 64 -8 80 -11 17 -3 44 -7 60 -10 17 -3 39 -7 50 -9 11 -2 36 -7 55 -10
122 -22 368 -98 487 -150 29 -13 56 -24 58 -25 6 -1 111 -58 150 -82 17 -10
45 -25 63 -35 17 -9 32 -20 32 -25 0 -4 7 -8 15 -8 8 0 15 -4 15 -8 0 -4 15
-16 33 -27 91 -53 345 -300 409 -397 9 -14 23 -31 30 -39 8 -8 34 -45 60 -84
90 -136 102 -169 75 -197 -7 -7 -30 -42 -50 -78 -54 -95 -60 -103 -94 -144 -7
-8 -13 -20 -13 -25 0 -6 -6 -14 -13 -18 -8 -4 -22 -21 -33 -38 -10 -16 -23
-35 -29 -41 -5 -6 -35 -39 -65 -73 -59 -69 -158 -166 -205 -203 -16 -13 -37
-30 -46 -38 -9 -8 -29 -24 -44 -35 -16 -11 -33 -24 -40 -30 -14 -13 -19 -16
-173 -110 -28 -17 -87 -49 -92 -50 -3 -1 -28 -13 -57 -28 -29 -15 -59 -27 -68
-27 -8 0 -15 -4 -15 -8 0 -5 -6 -9 -12 -10 -7 -1 -70 -21 -140 -45 -69 -25
-144 -48 -165 -52 -21 -5 -42 -10 -48 -11 -5 -2 -19 -5 -30 -8 -11 -2 -20 -5
-20 -6 0 -3 -38 -10 -75 -14 -19 -2 -35 -5 -35 -6 0 -3 -38 -9 -67 -12 -16 -1
-28 -5 -28 -8 0 -3 -21 -6 -48 -7 -55 -3 -127 -10 -127 -13 0 -2 -52 -6 -210
-15 -177 -10 -399 -10 -635 1 -218 10 -627 11 -755 1 -49 -3 -90 -7 -90 -7 0
-2 -30 -7 -80 -14 -27 -3 -61 -8 -75 -11 -13 -2 -42 -7 -65 -11 -22 -3 -67
-12 -100 -19 -33 -8 -71 -16 -85 -19 -14 -2 -46 -11 -72 -19 -27 -8 -48 -13
-48 -11 0 3 -13 -2 -30 -11 -16 -9 -30 -14 -30 -11 0 2 -53 -16 -117 -41 -65
-25 -126 -47 -135 -50 -10 -3 -18 -9 -18 -12 0 -4 -6 -8 -12 -8 -7 0 -35 -11
-63 -25 -86 -43 -160 -82 -165 -88 -3 -3 -32 -23 -65 -44 -77 -50 -168 -120
-221 -171 -24 -22 -51 -47 -61 -56 -21 -18 -122 -133 -143 -163 -8 -12 -21
-26 -30 -33 -8 -7 -11 -13 -7 -13 4 0 -1 -9 -11 -20 -10 -11 -25 -33 -33 -48
-8 -15 -17 -29 -20 -32 -10 -9 -33 -55 -31 -62 1 -5 -2 -8 -7 -8 -6 0 -60
-106 -66 -130 0 -3 -6 -14 -12 -25 -6 -11 -12 -24 -13 -30 -1 -5 -7 -21 -12
-35 -31 -83 -64 -216 -73 -300 -2 -19 -4 -35 -5 -35 -5 0 -12 -125 -12 -230
-1 -165 10 -269 43 -404 23 -97 76 -260 89 -276 4 -5 9 -14 10 -20 1 -5 7 -21
13 -35 6 -14 10 -28 9 -32 -1 -5 2 -8 8 -8 5 0 10 -6 10 -14 0 -21 95 -178
160 -266 100 -135 256 -279 390 -361 30 -18 58 -37 61 -42 3 -5 9 -8 13 -7 4
1 35 -12 69 -28 34 -17 94 -40 132 -53 39 -12 79 -26 90 -30 43 -16 154 -48
225 -64 105 -24 101 -23 172 -29 34 -3 74 -8 88 -11 31 -6 322 -7 370 -1 19 2
60 7 90 11 30 4 62 8 70 10 8 1 31 5 50 9 58 10 80 15 139 32 31 9 65 18 75
20 11 2 42 11 70 21 28 9 53 18 56 18 3 1 16 6 30 12 14 6 48 20 76 31 87 35
322 166 344 192 3 3 16 14 30 23 87 59 239 210 321 320 33 43 59 82 59 87 0 6
5 10 10 10 6 0 10 7 10 15 0 8 4 15 9 15 5 0 12 11 15 24 3 14 13 32 22 40 8
9 16 25 17 36 1 11 4 20 7 20 6 0 41 79 41 95 1 6 5 15 10 21 19 24 79 248 84
315 1 20 4 40 7 45 3 5 4 24 3 42 0 17 3 32 7 32 5 0 4 8 -1 18 -5 10 -6 23
-3 29 6 10 8 138 2 138 -2 0 -9 95 -10 129 -2 45 -53 244 -86 329 -23 60 -56
147 -59 157 -4 12 -28 67 -40 95 -13 28 -58 144 -60 155 -1 3 -5 19 -9 37 -35
148 9 269 117 317 65 29 105 45 135 51 22 5 32 7 82 19 14 3 37 8 53 10 15 3
35 7 45 10 9 3 31 8 47 10 71 11 102 16 125 22 43 10 94 18 118 18 12 1 22 3
22 6 0 3 8 6 18 7 9 1 31 4 47 8 17 3 44 8 60 10 17 3 41 8 55 11 14 3 36 7
50 9 14 2 25 4 25 5 0 2 12 4 65 14 14 2 41 7 60 11 19 3 80 17 135 30 55 13
111 26 125 29 40 7 300 75 360 93 30 10 57 18 60 18 18 4 99 27 120 35 14 5
99 32 190 60 91 28 174 55 185 60 20 8 176 64 185 66 3 0 14 4 25 9 11 4 101
39 200 77 99 39 194 76 210 83 37 17 108 48 115 50 15 5 51 21 100 43 75 33
104 45 112 46 3 1 9 4 13 7 5 6 82 -20 127 -42 10 -5 24 -9 32 -9 7 0 27 -7
42 -15 16 -8 37 -15 46 -15 9 0 20 -4 23 -10 3 -5 16 -10 29 -10 12 0 26 -3
30 -7 4 -5 11 -8 14 -9 4 0 14 -3 22 -7 8 -3 42 -15 75 -26 33 -10 132 -45
220 -76 88 -31 194 -68 235 -81 41 -14 84 -29 95 -34 11 -5 40 -15 65 -23 25
-8 131 -45 235 -81 105 -37 195 -68 200 -69 6 -1 12 -4 15 -7 3 -3 55 -22 115
-42 61 -20 196 -66 300 -103 105 -37 196 -67 203 -68 6 0 12 -5 12 -10 0 -6 3
-7 6 -4 4 3 15 2 26 -4 11 -6 27 -12 36 -14 9 -2 82 -27 162 -55 80 -28 150
-53 155 -54 6 -1 21 -8 35 -16 14 -7 26 -13 28 -12 1 1 3 2 5 1 1 0 9 -2 17
-4 16 -4 162 -55 300 -105 47 -17 96 -33 109 -36 14 -3 29 -8 35 -12 6 -3 16
-7 21 -8 6 -1 55 -19 110 -39 55 -20 110 -38 121 -41 12 -2 34 -10 50 -18 15
-8 31 -13 36 -10 4 3 8 0 8 -5 0 -6 3 -10 8 -9 12 2 102 -26 102 -32 0 -3 8
-6 18 -7 10 -1 60 -17 112 -37 52 -20 102 -36 111 -36 9 0 19 -3 23 -7 4 -5
11 -8 14 -9 4 0 20 -6 36 -13 16 -6 36 -13 45 -15 9 -2 23 -6 31 -9 21 -9 210
-77 243 -87 15 -5 27 -6 27 -2 0 4 4 2 8 -3 4 -6 39 -21 77 -34 39 -12 77 -25
85 -29 8 -3 17 -6 20 -7 3 -1 12 -4 20 -8 8 -3 35 -13 60 -21 25 -8 110 -38
190 -66 80 -28 152 -53 160 -55 8 -2 16 -4 18 -5 1 -2 5 -3 10 -5 4 -1 14 -5
22 -8 8 -3 58 -20 110 -38 52 -17 109 -38 127 -45 17 -8 37 -14 45 -14 8 0 18
-3 22 -7 3 -4 12 -8 19 -9 7 -1 84 -28 172 -59 88 -32 166 -57 173 -58 6 0 12
-5 12 -10 0 -6 3 -7 6 -4 4 3 16 1 28 -5 11 -7 26 -13 31 -14 6 0 13 -2 18 -4
4 -1 10 -3 15 -5 4 -1 14 -4 22 -8 30 -11 85 -27 94 -26 5 0 12 -3 15 -8 5 -6
197 -76 220 -79 3 0 13 -4 21 -7 96 -42 400 -138 510 -161 89 -20 128 -27 150
-31 14 -2 39 -6 55 -9 28 -5 88 -14 145 -21 164 -23 530 -23 660 0 14 2 66 11
115 21 50 9 99 17 111 18 11 1 24 5 30 8 5 3 25 9 44 14 49 11 49 11 55 14 3
1 10 4 15 5 6 1 12 4 15 5 3 1 8 3 13 4 4 1 13 5 20 9 6 5 12 6 12 2 0 -3 18
4 40 15 21 11 46 20 54 20 44 0 387 196 478 272 14 13 41 34 59 48 42 33 229
212 229 220 0 4 -57 28 -127 54 -71 26 -153 57 -183 69 -30 12 -58 22 -62 23
-5 1 -10 3 -13 4 -3 1 -8 3 -12 5 -5 1 -21 7 -38 14 -16 7 -34 14 -40 15 -5 2
-19 7 -30 11 -59 23 -201 77 -210 79 -9 3 -49 18 -85 33 -8 3 -19 7 -25 9 -5
1 -41 15 -80 29 -186 71 -232 87 -252 92 -13 3 -23 10 -23 16 0 6 -3 8 -6 4
-3 -3 -29 3 -58 15 -65 26 -189 72 -289 107 -42 16 -80 31 -84 34 -3 4 -15 7
-25 7 -10 0 -18 5 -18 10 0 6 -8 10 -17 10 -22 0 -86 23 -94 33 -3 5 -10 8
-15 8 -9 -2 -110 32 -149 50 -50 22 -81 32 -92 30 -7 -1 -13 2 -13 7 0 5 -6 9
-12 9 -7 1 -38 11 -68 23 -30 12 -95 36 -145 53 -49 18 -91 35 -93 40 -2 4
-12 7 -23 7 -11 0 -27 4 -37 10 -9 5 -73 30 -142 56 -151 55 -180 66 -247 93
-28 12 -59 21 -67 21 -9 0 -16 5 -16 10 0 6 -3 9 -7 8 -9 -2 -104 28 -148 48
-16 7 -104 40 -195 74 -168 63 -269 101 -305 115 -11 5 -22 9 -25 10 -21 5
-91 30 -115 41 -16 7 -165 63 -330 124 -165 61 -309 115 -320 119 -66 28 -130
51 -141 51 -8 0 -14 4 -14 8 0 5 -6 9 -12 9 -13 0 -537 193 -597 220 -18 8
-39 16 -45 18 -6 1 -18 5 -26 8 -31 13 -315 119 -325 121 -5 1 -27 10 -49 19
-21 9 -42 17 -47 17 -5 0 -17 4 -27 10 -9 5 -80 32 -157 60 -77 28 -149 55
-160 59 -81 33 -317 121 -337 126 -9 2 -30 11 -47 19 -17 9 -32 16 -33 16 -4
-2 -30 8 -118 40 l-74 28 38 16 c21 9 41 16 45 16 3 1 24 9 46 20 22 11 43 19
47 20 4 0 19 5 35 12 15 6 30 12 33 13 3 1 22 9 44 18 21 9 42 17 47 17 5 0
17 4 27 10 9 5 60 26 112 46 52 19 114 44 136 54 23 11 55 22 70 26 16 4 40
13 54 20 14 7 96 41 183 74 87 34 171 66 185 72 15 6 29 12 32 12 19 4 257
101 268 109 6 5 12 7 12 3 0 -4 13 0 29 8 16 9 31 12 35 9 3 -4 6 -1 6 5 0 7
5 12 12 12 12 0 118 40 177 67 18 8 39 16 45 18 6 1 20 6 31 10 77 32 396 155
400 155 3 0 24 8 48 19 23 10 92 38 152 61 61 24 123 49 139 56 16 8 34 14 40
14 6 0 22 6 36 13 22 11 116 49 130 53 8 1 43 15 65 25 38 16 192 75 207 78 4
1 31 13 60 26 29 14 61 25 71 25 9 0 17 5 17 12 0 6 3 8 6 5 4 -3 16 -1 28 5
11 7 26 13 31 14 25 6 81 30 86 37 3 5 9 8 13 8 18 -2 66 13 66 20 0 5 6 9 13
9 12 0 170 60 344 131 39 16 79 29 87 29 9 0 16 4 16 8 0 5 19 14 43 21 23 7
61 21 84 32 24 10 48 19 54 19 6 0 23 6 37 14 15 8 106 45 202 82 96 37 181
71 188 77 6 5 12 7 12 4 0 -3 25 5 55 18 30 14 55 22 55 19 0 -4 6 -2 13 3 6
5 59 28 117 50 148 58 144 56 153 55 4 -1 7 2 7 8 0 5 8 10 18 10 10 0 22 3
26 7 3 4 12 8 19 9 7 1 71 26 142 55 72 29 136 52 143 52 6 0 12 4 12 9 0 4 8
8 18 8 10 0 22 3 26 8 4 4 11 7 14 8 4 0 21 6 37 13 17 7 47 18 68 24 20 7 37
15 37 19 0 5 6 8 13 8 11 0 122 41 212 78 21 10 42 17 45 18 3 0 19 6 35 13
32 13 196 78 230 91 11 4 22 7 25 7 3 0 16 6 30 13 14 8 27 15 30 15 13 2 58
18 85 31 39 17 187 75 200 79 6 1 24 8 40 14 17 7 54 22 82 33 29 10 55 23 58
28 6 10 -165 186 -229 235 -21 17 -43 35 -50 40 -16 15 -183 125 -189 125 -3
0 -31 15 -64 33 -32 18 -74 39 -93 46 -19 8 -60 25 -89 38 -30 14 -63 25 -73
26 -10 1 -18 4 -18 7 0 4 -6 7 -12 8 -7 0 -38 8 -68 17 -65 19 -125 35 -160
41 -14 3 -41 9 -60 14 -19 5 -57 12 -84 15 -27 3 -59 8 -70 11 -12 2 -57 7
-101 9 -44 2 -80 5 -80 6 0 1 -69 2 -152 3 -88 1 -153 -2 -153 -7 0 -5 -6 -4
-13 2 -8 6 -16 8 -19 6 -3 -3 -39 -8 -79 -10 -41 -2 -87 -6 -104 -9 -16 -3
-52 -7 -80 -11 -27 -3 -61 -7 -75 -10 -14 -3 -41 -8 -60 -11 -29 -5 -83 -16
-190 -39 -8 -1 -35 -8 -60 -15 -25 -7 -52 -13 -60 -15 -40 -8 -387 -124 -470
-158 -14 -6 -30 -11 -36 -12 -6 -2 -27 -10 -47 -20 -19 -9 -41 -18 -49 -19 -7
-2 -26 -9 -43 -15 -16 -7 -55 -22 -85 -33 -30 -11 -64 -23 -75 -28 -11 -5 -87
-34 -170 -65 -82 -30 -159 -59 -170 -64 -23 -10 -88 -35 -95 -37 -3 0 -18 -6
-33 -12 -16 -7 -33 -12 -38 -12 -5 0 -17 -4 -27 -10 -9 -5 -66 -28 -127 -50
-60 -22 -119 -44 -130 -49 -11 -5 -90 -35 -175 -66 -85 -32 -169 -64 -187 -72
-17 -8 -37 -16 -45 -17 -12 -3 -49 -17 -88 -33 -8 -3 -18 -7 -22 -8 -5 -2 -9
-3 -10 -5 -2 -1 -10 -3 -18 -5 -8 -2 -44 -15 -80 -30 -36 -14 -96 -38 -135
-51 -38 -14 -79 -29 -90 -34 -11 -5 -74 -29 -140 -54 -66 -24 -133 -50 -150
-57 -16 -7 -32 -13 -35 -14 -3 -1 -12 -4 -20 -8 -8 -3 -168 -63 -355 -133
-187 -70 -359 -135 -383 -146 -23 -10 -47 -16 -52 -13 -6 3 -10 1 -10 -4 0 -6
-9 -11 -20 -11 -11 0 -20 -5 -20 -12 0 -6 -2 -9 -5 -6 -3 3 -38 -7 -78 -22
-191 -73 -263 -99 -277 -102 -8 -2 -18 -7 -21 -11 -3 -4 -19 -10 -34 -13 -16
-3 -34 -9 -40 -13 -15 -11 -169 -66 -177 -63 -5 1 -8 -2 -8 -8 0 -5 -7 -10
-15 -10 -9 0 -43 -12 -78 -26 -34 -14 -70 -27 -79 -29 -9 -2 -27 -9 -40 -16
-13 -7 -28 -14 -35 -15 -6 -1 -60 -21 -120 -44 -59 -23 -112 -43 -118 -44 -5
-2 -23 -9 -40 -16 -16 -6 -41 -16 -55 -20 -14 -5 -89 -33 -167 -63 -79 -31
-143 -52 -143 -49 0 4 -4 2 -8 -3 -4 -6 -32 -19 -62 -29 -30 -11 -66 -24 -80
-29 -14 -6 -27 -11 -30 -12 -3 0 -54 -20 -115 -44 -60 -24 -114 -44 -120 -45
-5 -2 -23 -8 -38 -14 -16 -7 -31 -12 -34 -12 -3 0 -19 -6 -36 -14 -18 -7 -70
-28 -117 -45 -47 -18 -94 -36 -105 -41 -17 -7 -59 -22 -75 -25 -3 -1 -22 -9
-44 -18 -21 -9 -44 -17 -50 -17 -7 0 -16 -4 -21 -9 -17 -14 -104 -40 -110 -32
-6 11 -455 231 -468 230 -3 0 -31 10 -132 51 -44 17 -100 38 -125 47 -25 8
-58 20 -75 28 -69 30 -481 156 -527 160 -10 1 -24 7 -31 14 -8 6 -16 9 -19 6
-2 -3 -26 1 -51 9 -26 8 -47 12 -47 10 0 -2 -12 1 -27 7 -16 6 -39 13 -53 15
-14 3 -63 14 -110 25 -47 12 -96 23 -110 25 -41 7 -62 11 -120 22 -30 6 -68
13 -85 16 -16 2 -55 9 -85 16 -30 6 -68 13 -85 15 -16 3 -42 8 -57 11 -15 3
-42 7 -60 10 -18 3 -42 6 -53 8 -30 5 -107 18 -130 22 -11 3 -38 7 -60 9 -22
3 -47 7 -55 10 -8 2 -35 7 -60 10 -25 3 -52 8 -60 10 -8 3 -31 7 -50 9 -19 3
-57 10 -85 16 -27 6 -61 12 -75 14 -14 2 -34 6 -45 9 -11 3 -42 10 -70 17 -66
15 -219 71 -223 81 -2 5 -10 9 -17 9 -17 0 -85 68 -85 86 0 8 -5 14 -11 14 -7
0 -9 25 -6 78 5 83 8 100 28 147 7 17 13 32 13 35 1 3 9 16 17 30 69 108 132
224 134 245 0 6 3 15 7 20 6 9 35 115 44 160 19 93 27 193 27 350 1 203 -8
294 -39 420 -21 86 -21 87 -35 120 -6 17 -14 39 -16 49 -2 11 -8 25 -14 33 -6
7 -9 13 -5 13 17 0 -143 270 -203 342 -105 128 -224 243 -331 319 -25 18 -46
36 -48 41 -2 4 -10 8 -18 8 -8 0 -22 8 -32 18 -10 9 -36 26 -58 37 -21 11 -41
22 -44 26 -6 7 -188 93 -220 104 -3 1 -18 7 -33 13 -16 7 -34 12 -42 12 -8 0
-16 4 -19 9 -5 7 -23 12 -71 21 -2 1 -19 6 -37 11 -57 18 -141 37 -192 44 -27
3 -54 9 -60 12 -8 6 -413 12 -419 7z m293 -558 c25 -3 56 -9 70 -12 14 -3 36
-8 50 -10 79 -14 349 -125 370 -152 3 -4 12 -11 21 -17 139 -87 300 -255 389
-405 57 -98 129 -279 145 -368 3 -15 7 -38 10 -52 26 -120 25 -349 -1 -475
-15 -72 -33 -138 -44 -157 -6 -10 -10 -22 -10 -28 0 -17 -80 -182 -96 -197 -8
-8 -14 -18 -14 -23 0 -5 -6 -15 -12 -22 -7 -7 -25 -29 -39 -48 -86 -114 -249
-241 -366 -286 -24 -9 -43 -20 -43 -23 0 -4 -9 -7 -19 -8 -11 -1 -51 -13 -88
-26 -121 -44 -226 -60 -378 -60 -115 1 -220 7 -220 13 0 1 -11 3 -25 6 -36 6
-112 25 -135 34 -11 4 -45 15 -75 25 -105 35 -301 137 -348 182 -7 7 -17 13
-21 13 -4 0 -19 9 -32 20 -109 94 -161 143 -200 188 -24 29 -51 61 -59 71 -8
9 -19 24 -25 33 -5 9 -24 36 -40 59 -67 97 -154 310 -158 386 -1 18 -4 33 -8
33 -7 0 -12 68 -12 180 0 104 5 145 29 247 9 38 17 73 18 78 23 99 92 246 158
331 76 100 228 244 256 244 6 0 20 11 33 25 13 13 32 25 41 25 9 0 18 3 20 8
5 12 105 62 112 55 3 -3 6 -1 6 5 0 7 7 12 16 12 8 0 37 9 63 21 27 11 55 22
62 23 8 1 34 9 59 16 25 7 56 14 70 15 14 2 25 4 25 5 0 3 67 11 103 13 17 0
32 4 32 7 0 7 247 4 310 -4z m114 -5720 c37 -4 77 -10 89 -13 12 -2 40 -8 62
-13 43 -9 122 -38 193 -71 24 -11 62 -27 85 -36 23 -9 44 -19 47 -22 3 -3 21
-14 40 -23 19 -10 44 -24 54 -30 55 -36 206 -180 206 -196 0 -6 4 -12 9 -14
13 -4 111 -165 111 -181 0 -7 4 -17 10 -23 10 -10 56 -134 64 -175 3 -13 7
-34 10 -46 13 -53 17 -71 23 -133 9 -82 8 -260 -1 -325 -13 -90 -15 -100 -21
-125 -3 -14 -8 -35 -11 -47 -9 -46 -83 -252 -94 -263 -3 -3 -18 -30 -34 -60
-26 -49 -74 -121 -116 -174 -61 -77 -194 -188 -270 -227 -25 -13 -47 -26 -50
-29 -9 -11 -153 -63 -206 -75 -10 -2 -41 -11 -69 -19 -27 -9 -66 -19 -85 -22
-45 -8 -65 -12 -65 -14 0 -1 -18 -3 -40 -6 -61 -7 -295 -11 -295 -5 0 3 -24 7
-53 8 -67 2 -129 13 -143 24 -6 5 -13 6 -17 3 -12 -13 -207 56 -322 113 -150
76 -271 174 -370 304 -63 81 -113 169 -122 213 -2 11 -7 24 -12 30 -12 15 -39
128 -48 201 -16 128 -8 341 16 423 5 18 9 35 9 38 -3 35 143 364 171 384 4 3
21 26 39 51 77 113 211 244 349 340 93 64 244 143 316 164 4 1 9 4 12 5 3 1 8
3 13 4 4 2 33 10 64 20 32 9 70 19 85 21 16 2 28 4 28 5 0 4 45 11 88 14 26 1
49 5 51 7 6 6 119 3 200 -5z"/>
</g>
</svg>
